<svg width="112" height="112" viewBox="0 0 112 112" fill="none" xmlns="http://www.w3.org/2000/svg">
<path d="M83.4059 0V7.7562C74.9646 2.83691 65.376 0.228819 55.6059 0.1946C48.3113 0.0845296 41.0708 1.46248 34.3266 4.2443C27.5823 7.02612 21.4759 11.1534 16.3801 16.3742C11.1096 21.4423 6.93659 27.5392 4.11991 34.2868C1.30323 41.0345 -0.0970541 48.2888 0.00592113 55.6C-0.102785 62.9168 1.28635 70.1785 4.08791 76.9386C6.88947 83.6987 11.0442 89.8142 16.2967 94.9092C21.3847 100.171 27.4989 104.332 34.2607 107.134C41.0224 109.936 48.2875 111.32 55.6059 111.2C65.8619 111.194 75.9095 108.304 84.6013 102.86C85.732 105.28 87.5003 107.346 89.7165 108.837C91.9328 110.407 94.5899 111.235 97.3059 111.2H111.206V0H83.4059ZM65.5305 39.1146C65.5811 38.1011 65.8438 37.1095 66.3015 36.2038C66.7592 35.2982 67.4018 34.4986 68.1877 33.8567C68.9737 33.2148 69.8856 32.745 70.8644 32.4775C71.8433 32.2099 72.8674 32.1507 73.8705 32.3036C75.9243 32.9921 77.6575 34.404 78.747 36.2761C79.8365 38.1482 80.2079 40.3527 79.7919 42.4784C79.7456 43.4934 79.4857 44.4872 79.0294 45.395C78.573 46.3029 77.9304 47.1042 77.1434 47.7469C76.3564 48.3896 75.4428 48.8592 74.4621 49.125C73.4814 49.3907 72.4557 49.4468 71.4519 49.2894C69.3982 48.6009 67.665 47.189 66.5754 45.3169C65.4859 43.4448 65.1145 41.2403 65.5305 39.1146ZM49.5177 23.2964C50.4471 22.76 51.4789 22.4252 52.5461 22.3139C53.6134 22.2025 54.6921 22.3171 55.7122 22.6501C56.7322 22.9831 57.6707 23.5271 58.4667 24.2468C59.2626 24.9664 59.8981 25.8456 60.3319 26.827C61.5485 28.7566 62.0192 31.0639 61.6558 33.3159C61.2924 35.5679 60.1199 37.6099 58.3581 39.059C57.4288 39.5954 56.3969 39.9302 55.3297 40.0415C54.2625 40.1529 53.1837 40.0383 52.1637 39.7053C51.1436 39.3723 50.2051 38.8283 49.4092 38.1086C48.6132 37.389 47.9777 36.5098 47.5439 35.5284C46.3274 33.5988 45.8566 31.2915 46.22 29.0395C46.5834 26.7875 47.756 24.7455 49.5177 23.2964ZM31.4199 31.1638C32.3482 30.6229 33.3804 30.2846 34.4487 30.1709C35.5171 30.0572 36.5974 30.1709 37.6187 30.5043C38.64 30.8377 39.5792 31.3834 40.3747 32.1056C41.1701 32.8277 41.8038 33.71 42.2341 34.6944C43.4507 36.6241 43.9214 38.9313 43.558 41.1833C43.1946 43.4353 42.0221 45.4773 40.2603 46.9264C39.3303 47.4664 38.2964 47.8034 37.2268 47.9152C36.1572 48.027 35.076 47.9109 34.0544 47.5748C33.0329 47.2386 32.094 46.69 31.2998 45.9649C30.5055 45.2398 29.8737 44.3548 29.4461 43.368C28.2314 41.4426 27.7617 39.1399 28.1251 36.8926C28.4886 34.6453 29.6602 32.6081 31.4199 31.1638ZM36.2849 64.5238C35.7143 65.3684 34.9721 66.0833 34.1067 66.6219C33.2413 67.1604 32.2721 67.5107 31.2623 67.6497C30.2525 67.7887 29.2248 67.7134 28.2461 67.4286C27.2673 67.1439 26.3596 66.6562 25.5819 65.9972C23.7645 64.8426 22.4257 63.0698 21.8126 61.0057C21.1996 58.9417 21.3534 56.7255 22.2459 54.766C22.8166 53.9214 23.5588 53.2065 24.4242 52.6679C25.2896 52.1294 26.2587 51.7791 27.2685 51.6401C28.2783 51.5011 29.306 51.5764 30.2848 51.8612C31.2635 52.1459 32.1713 52.6336 32.9489 53.2926C34.773 54.4481 36.1163 56.2258 36.7298 58.2961C37.3432 60.3664 37.1851 62.5889 36.2849 64.5516V64.5238ZM79.7085 73.67C74.8157 77.423 67.6433 73.0862 61.6941 75.616C55.6059 77.84 53.3819 86.18 47.2659 86.7638C41.1499 87.3476 36.4517 80.7868 42.0395 68.6938C45.8203 60.3538 44.8195 53.4872 51.5471 50.5682C58.2747 47.6492 62.5281 53.7374 71.0071 57.0456C83.4059 61.8828 84.6013 69.917 79.7085 73.67Z" fill="#3772FF"/>
</svg>
