<?xml version="1.0" encoding="utf-8"?>
<!-- Generator: Adobe Illustrator 24.0.1, SVG Export Plug-In . SVG Version: 6.00 Build 0)  -->
<svg version="1.1" xmlns="http://www.w3.org/2000/svg" xmlns:xlink="http://www.w3.org/1999/xlink" x="0px" y="0px"
	 viewBox="0 0 18 12" style="enable-background:new 0 0 18 12;" xml:space="preserve">
<style type="text/css">
	.st0{display:none;}
	.st1{display:inline;fill:#999999;}
	.st2{fill:#999999;}
	.st3{fill:none;stroke:#999999;stroke-miterlimit:10;}
</style>
<g id="Layer_1" class="st0">
	<path class="st1" d="M12,7.6l-0.9-0.9c0.4-0.9,0.2-1.7-0.6-2.4C9.9,3.8,9.1,3.6,8.2,3.9L7.3,3c0.2-0.1,0.5-0.3,0.8-0.3
		C8.4,2.6,8.7,2.6,9,2.6c1,0,1.8,0.3,2.5,1c0.7,0.7,1,1.5,1,2.4c0,0.3,0,0.6-0.1,0.9C12.3,7.2,12.2,7.4,12,7.6z M14.7,10.2l-0.8-0.8
		c0.7-0.5,1.3-1,1.7-1.6c0.5-0.6,0.9-1.2,1.1-1.8C16,4.5,15,3.4,13.6,2.5c-1.4-0.9-2.8-1.3-4.4-1.3C8.6,1.2,8,1.3,7.4,1.4
		C6.8,1.5,6.4,1.6,6,1.8L5.1,0.8c0.5-0.2,1.1-0.4,1.8-0.6C7.7,0.1,8.4,0,9.1,0c2,0,3.7,0.5,5.3,1.6S17.3,4.2,18,6
		c-0.4,0.9-0.8,1.6-1.4,2.3C16.1,9,15.4,9.7,14.7,10.2z M15.9,14.7l-3.4-3.3c-0.5,0.2-1,0.3-1.6,0.4C10.2,11.9,9.6,12,9,12
		c-2,0-3.8-0.5-5.4-1.6C2,9.3,0.8,7.8,0,6c0.3-0.7,0.7-1.4,1.1-2c0.5-0.7,1.1-1.3,1.8-1.9L0.3-0.4l0.9-0.9l15.5,15.1L15.9,14.7z
		 M3.7,2.9c-0.5,0.4-1,0.8-1.5,1.4C1.8,4.9,1.5,5.5,1.3,6C2,7.5,3,8.7,4.4,9.5c1.4,0.9,3,1.3,4.8,1.3c0.4,0,0.9,0,1.3-0.1
		c0.4-0.1,0.8-0.1,1-0.2l-1.3-1.3C10,9.3,9.8,9.3,9.6,9.4c-0.2,0-0.4,0-0.6,0c-1,0-1.8-0.3-2.5-1C5.9,7.8,5.5,7,5.5,6
		c0-0.2,0-0.4,0.1-0.6S5.7,5,5.7,4.9L3.7,2.9z"/>
</g>
<g id="Layer_2" class="st0">
	<path class="st1" d="M12,7.6l-0.9-0.9c0.4-0.9,0.2-1.7-0.6-2.4C9.9,3.8,9.1,3.6,8.2,3.9L7.3,3c0.2-0.1,0.5-0.3,0.8-0.3
		C8.4,2.6,8.7,2.6,9,2.6c1,0,1.8,0.3,2.5,1c0.7,0.7,1,1.5,1,2.4c0,0.3,0,0.6-0.1,0.9C12.3,7.2,12.2,7.4,12,7.6z M14.7,10.2l-0.8-0.8
		c0.7-0.5,1.3-1,1.7-1.6c0.5-0.6,0.9-1.2,1.1-1.8C16,4.5,15,3.4,13.6,2.5c-1.4-0.9-2.8-1.3-4.4-1.3C8.6,1.2,8,1.3,7.4,1.4
		C6.8,1.5,6.4,1.6,6,1.8L5.1,0.8c0.5-0.2,1.1-0.4,1.8-0.6C7.7,0.1,8.4,0,9.1,0c2,0,3.7,0.5,5.3,1.6S17.3,4.2,18,6
		c-0.4,0.9-0.8,1.6-1.4,2.3C16.1,9,15.4,9.7,14.7,10.2z M15.9,14.7l-3.4-3.3c-0.5,0.2-1,0.3-1.6,0.4C10.2,11.9,9.6,12,9,12
		c-2,0-3.8-0.5-5.4-1.6C2,9.3,0.8,7.8,0,6c0.3-0.7,0.7-1.4,1.1-2c0.5-0.7,1.1-1.3,1.8-1.9L0.3-0.4l0.9-0.9l15.5,15.1L15.9,14.7z
		 M3.7,2.9c-0.5,0.4-1,0.8-1.5,1.4C1.8,4.9,1.5,5.5,1.3,6C2,7.5,3,8.7,4.4,9.5c1.4,0.9,3,1.3,4.8,1.3c0.4,0,0.9,0,1.3-0.1
		c0.4-0.1,0.8-0.1,1-0.2l-1.3-1.3C10,9.3,9.8,9.3,9.6,9.4c-0.2,0-0.4,0-0.6,0c-1,0-1.8-0.3-2.5-1C5.9,7.8,5.5,7,5.5,6
		c0-0.2,0-0.4,0.1-0.6S5.7,5,5.7,4.9L3.7,2.9z"/>
</g>
<g id="Layer_3" class="st0">
	<path class="st1" d="M1.4,8.3C0.8,7.6,0.4,6.9,0,6c0.8-1.8,1.9-3.3,3.5-4.4S6.9,0,8.9,0c0.7,0,1.4,0.1,2.2,0.2
		c0.7,0.2,1.4,0.3,1.8,0.6L12,1.8c-0.3-0.1-0.8-0.3-1.4-0.4C10,1.3,9.4,1.2,8.8,1.2c-1.6,0-3.1,0.4-4.4,1.3C3,3.4,2,4.5,1.3,6
		c0.2,0.6,0.6,1.2,1.1,1.8c0.5,0.6,1.1,1.1,1.7,1.6l-0.8,0.8C2.6,9.7,1.9,9,1.4,8.3z"/>
</g>
<g id="Layer_4">
	<path class="st2" d="M16.3,3.3c-1-1.2-2.6-2.2-3.6-2.6C11.6,0.3,10.5,0,9,0S6.4,0.3,5.3,0.7C4.2,1.1,2.7,2.2,1.7,3.3
		C0.6,4.5,0,6,0,6s0.6,1.5,1.7,2.7c1,1.2,2.6,2.2,3.6,2.6C6.4,11.7,7.5,12,9,12s2.6-0.3,3.7-0.7c1.1-0.4,2.6-1.5,3.6-2.6
		C17.4,7.5,18,6,18,6S17.4,4.5,16.3,3.3z M15.3,8.1c-0.8,0.8-1.6,1.5-2.9,2C11,10.7,10,10.8,9,10.8c-1,0-2-0.1-3.4-0.6
		c-1.4-0.5-2.1-1.2-2.9-2S1.3,6,1.3,6s0.6-1.3,1.4-2.1c0.8-0.8,1.6-1.5,2.9-2C7,1.3,8,1.2,9,1.2c1,0,2,0.1,3.4,0.6
		c1.4,0.5,2.1,1.2,2.9,2C16.1,4.7,16.7,6,16.7,6S16.1,7.3,15.3,8.1z"/>
	<circle class="st3" cx="8.9" cy="6.1" r="2.8"/>
</g>
</svg>
